HIERARCHY
ROOT SimulationBone
{
	OFFSET 0.000000 0.000000 0.000000
	CHANNELS 6 Xposition Yposition Zposition Zrotation Yrotation Xrotation 
	JOINT Hips
	{
		OFFSET 0.000000 0.000000 0.000000
		CHANNELS 6 Xposition Yposition Zposition Zrotation Yrotation Xrotation 
		JOINT LeftUpLeg
		{
			OFFSET 0.103462 1.857831 10.548502
			CHANNELS 3 Zrotation Yrotation Xrotation
			JOINT LeftLeg
			{
				OFFSET 43.500008 -0.000027 -0.000004
				CHANNELS 3 Zrotation Yrotation Xrotation
				JOINT LeftFoot
				{
					OFFSET 42.372200 0.000011 -0.000002
					CHANNELS 3 Zrotation Yrotation Xrotation
					JOINT LeftToe
					{
						OFFSET 17.299999 -0.000001 -0.000002
						CHANNELS 3 Zrotation Yrotation Xrotation
						End Site
						{
							OFFSET 0.000000 0.000000 0.000000
						}
					}
				}
			}
		}
		JOINT RightUpLeg
		{
			OFFSET 0.103458 1.857828 -10.548501
			CHANNELS 3 Zrotation Yrotation Xrotation
			JOINT RightLeg
			{
				OFFSET 43.500038 -0.000031 0.000011
				CHANNELS 3 Zrotation Yrotation Xrotation
				JOINT RightFoot
				{
					OFFSET 42.372257 -0.000004 0.000010
					CHANNELS 3 Zrotation Yrotation Xrotation
					JOINT RightToe
					{
						OFFSET 17.299994 -0.000005 0.000004
						CHANNELS 3 Zrotation Yrotation Xrotation
						End Site
						{
							OFFSET 0.000000 0.000000 0.000000
						}
					}
				}
			}
		}
		JOINT Spine
		{
			OFFSET 6.901966 -2.603733 0.000000
			CHANNELS 3 Zrotation Yrotation Xrotation
			JOINT Spine1
			{
				OFFSET 12.588101 0.000002 0.000000
				CHANNELS 3 Zrotation Yrotation Xrotation
				JOINT Spine2
				{
					OFFSET 12.343201 0.000004 -0.000002
					CHANNELS 3 Zrotation Yrotation Xrotation
					JOINT Neck
					{
						OFFSET 25.832895 -0.000004 0.000002
						CHANNELS 3 Zrotation Yrotation Xrotation
						JOINT Head
						{
							OFFSET 11.766604 0.000011 0.000001
							CHANNELS 3 Zrotation Yrotation Xrotation
							End Site
							{
								OFFSET 0.000000 0.000000 0.000000
							}
						}
					}
					JOINT LeftShoulder
					{
						OFFSET 19.745903 -1.480368 6.000108
						CHANNELS 3 Zrotation Yrotation Xrotation
						JOINT LeftArm
						{
							OFFSET 11.284126 -0.000007 -0.000022
							CHANNELS 3 Zrotation Yrotation Xrotation
							JOINT LeftForeArm
							{
								OFFSET 33.000053 0.000001 0.000028
								CHANNELS 3 Zrotation Yrotation Xrotation
								JOINT LeftHand
								{
									OFFSET 25.200005 0.000019 0.000013
									CHANNELS 3 Zrotation Yrotation Xrotation
									End Site
									{
										OFFSET 0.000000 0.000000 0.000000
									}
								}
							}
						}
					}
					JOINT RightShoulder
					{
						OFFSET 19.746094 -1.480373 -6.000072
						CHANNELS 3 Zrotation Yrotation Xrotation
						JOINT RightArm
						{
							OFFSET 11.284138 -0.000017 -0.000010
							CHANNELS 3 Zrotation Yrotation Xrotation
							JOINT RightForeArm
							{
								OFFSET 33.000092 0.000013 0.000009
								CHANNELS 3 Zrotation Yrotation Xrotation
								JOINT RightHand
								{
									OFFSET 25.199776 0.000139 0.000415
									CHANNELS 3 Zrotation Yrotation Xrotation
									End Site
									{
										OFFSET 0.000000 0.000000 0.000000
									}
								}
							}
						}
					}
				}
			}
		}
	}
}
MOTION
Frames: 7
Frame Time: 0.016667
-20.731294 0.000000 -89.841876 0.000000 -34.481052 0.000000 -3.960745 87.707550 2.120383 91.877513 6.374777 175.730352 150.263368 -14.096100 -176.816959 -54.589094 -0.474929 -10.787658 77.803169 5.719727 -7.490527 21.454550 0.003089 0.000000 170.561872 9.773607 -168.760013 -22.658832 4.035423 5.561208 74.181242 -0.722505 11.230148 21.454558 -0.003112 -0.000018 11.420173 1.213212 2.393910 12.876087 2.152055 4.908886 12.559012 2.181759 4.895847 9.397728 -3.576076 1.107253 -6.371600 4.753189 -0.434435 155.604342 -80.688385 23.146123 -10.654830 44.709294 28.587442 -28.598291 -10.625243 0.921166 12.443804 3.332995 56.253645 174.518778 73.926610 -4.198700 -55.540755 -44.177102 -20.905265 -52.559158 15.960269 -1.929462 2.291809 -0.184506 -20.509185 
-19.994589 0.000000 -91.395685 0.000000 -34.100055 0.000000 -3.864226 87.538102 2.247651 91.595790 6.391413 176.863717 152.152938 -15.933168 -176.528473 -53.400436 0.272322 -10.780503 77.842326 5.710391 -7.441315 21.454556 0.003094 -0.000004 171.521968 10.688352 -168.864011 -20.563948 4.297079 6.509761 72.874968 -0.933855 12.366292 21.454551 -0.003127 -0.000018 11.061373 1.277910 2.209799 12.158497 2.316206 4.542645 11.841178 2.343709 4.528616 9.123920 -4.326255 0.615519 -5.886187 5.532640 -1.201768 156.994270 -80.247733 21.761778 -12.101006 44.949967 24.927251 -30.308713 -11.136099 0.994661 10.644986 1.261015 52.799243 176.434608 73.440406 -2.247337 -53.018567 -45.180539 -21.779296 -49.546834 16.110122 -1.843845 3.008440 -0.894524 -19.870886 
-19.267029 0.000000 -92.947988 0.000000 -33.690343 0.000000 -3.716332 87.277496 2.308053 91.355201 6.331007 177.812406 154.325692 -17.629393 -176.775842 -51.447098 1.026284 -11.458573 77.654073 6.468056 -6.241479 21.454558 0.003095 -0.000004 172.675488 11.742490 -169.060528 -18.262604 4.616253 7.444023 71.494997 -1.106366 13.525669 21.454553 -0.003121 -0.000018 10.719594 1.285798 2.031934 11.472071 2.363528 4.182291 11.154581 2.388860 4.167976 8.934973 -4.808749 0.166059 -5.677292 6.125982 -1.859960 157.996302 -80.249327 20.746923 -13.151987 45.611015 22.348100 -33.189053 -11.840463 1.090327 9.338770 -0.383293 48.832378 177.718695 72.837331 -0.943430 -50.063448 -46.043356 -22.562380 -46.651813 16.101469 -1.747791 3.712961 -1.235425 -19.430181 
-18.546542 0.000000 -94.495994 0.000000 -33.253250 0.000000 -3.556075 86.937697 2.268407 91.136809 6.132059 178.698674 156.604504 -19.025019 -177.453133 -49.203489 1.846049 -12.213254 77.449713 7.146136 -5.576186 21.454556 0.003094 -0.000001 173.802989 13.059845 -169.128379 -16.186201 4.921449 8.265830 70.235112 -1.180474 14.706747 21.454557 -0.003106 -0.000018 10.401707 1.249629 1.841593 10.831326 2.321172 3.792890 10.513703 2.344156 3.778831 8.744573 -5.165871 -0.268848 -5.616790 6.584885 -2.464677 159.019950 -80.448848 19.700585 -13.874999 46.479571 20.580064 -37.122655 -12.598398 1.224620 8.334641 -1.648148 44.681074 178.946096 72.193685 0.304048 -46.872804 -46.745956 -23.161904 -43.895402 16.016866 -1.657946 4.388385 -1.338962 -19.129796 
-17.831053 0.000000 -96.036913 0.000000 -32.790053 0.000000 -3.421175 86.530670 2.094382 90.920547 5.734308 179.645165 158.787910 -19.968992 -178.426165 -47.130251 2.740434 -12.444955 77.398036 6.887261 -7.124858 21.454553 0.003092 0.000001 174.695393 14.756106 -168.848970 -14.771824 5.159824 8.866689 69.292364 -1.104672 15.904599 21.454562 -0.003093 -0.000017 10.114530 1.181998 1.619852 10.250510 2.215715 3.338666 9.932755 2.235961 3.325246 8.468981 -5.541458 -0.714753 -5.578837 6.964559 -3.068063 160.367321 -80.597919 18.329195 -14.296843 47.323757 19.389415 -41.996346 -13.270376 1.397810 7.431068 -2.587790 40.695711 -179.362803 71.569601 2.031496 -43.656919 -47.279870 -23.469794 -41.296576 15.939776 -1.581824 5.013720 -1.338099 -18.915811 
-17.118489 0.000000 -97.567954 0.000000 -32.301984 0.000000 -3.335412 86.081402 1.768981 90.695013 5.072195 -179.282630 160.725406 -20.327780 -179.532459 -45.465323 3.553678 -11.689963 77.884197 5.178645 -11.718126 21.454550 0.003091 0.000002 175.240231 16.903466 -168.135560 -14.281389 5.281863 9.200120 68.763184 -0.858598 17.149290 21.454563 -0.003091 -0.000016 9.868110 1.086868 1.359719 9.750187 2.055225 2.806595 9.432293 2.072266 2.794149 8.051383 -6.059759 -1.192714 -5.472241 7.333979 -3.719721 162.193796 -80.501367 16.483623 -14.482739 47.973595 18.513913 -47.655147 -13.729794 1.592587 6.419000 -3.257658 37.316029 -176.985125 70.992379 4.470260 -40.535749 -47.636193 -23.359165 -38.890502 15.924063 -1.518389 5.570876 -1.281997 -18.726462 
-16.406775 0.000000 -99.086327 0.000000 -31.790244 0.000000 -3.272348 85.666962 1.349185 90.492429 4.054784 -178.248863 162.550074 -19.986098 179.421488 -43.633515 3.634014 -9.991763 79.779361 2.920131 -16.829671 21.454550 0.003091 0.000001 175.646224 19.412007 -167.407622 -14.266163 5.208289 9.491089 68.332114 -0.510803 18.613507 21.454562 -0.003099 -0.000015 9.685528 0.934278 1.102641 9.377015 1.776085 2.277584 9.059027 1.789941 2.266831 7.535048 -6.761441 -1.712722 -5.339676 7.807549 -4.466312 164.439876 -80.190102 14.220561 -14.717183 48.544705 17.514149 -53.768799 -13.893937 1.801299 5.068568 -3.664308 35.296982 -174.680490 70.441316 6.838824 -37.239239 -47.775444 -22.660526 -36.785431 15.903892 -1.462923 6.061270 -0.881363 -18.455521 
